<?xml version="1.0" encoding="iso-8859-1"?>
<!-- Generator: Adobe Illustrator 19.0.0, SVG Export Plug-In . SVG Version: 6.00 Build 0)  -->
<svg version="1.1" id="Layer_1" xmlns="http://www.w3.org/2000/svg" xmlns:xlink="http://www.w3.org/1999/xlink" x="0px" y="0px"
	 viewBox="0 0 512 512" style="enable-background:new 0 0 512 512;" xml:space="preserve">
<g>
	<path style="fill:#9B4573;" d="M386.652,456.143h-26.579v-56.039h64.045v18.574C424.119,439.368,407.345,456.143,386.652,456.143z"
		/>
	<path style="fill:#9B4573;" d="M265.242,504.179L265.242,504.179c-13.948,0-25.254-11.307-25.254-25.254V352.068h56.04v121.324
		C296.027,490.395,282.243,504.179,265.242,504.179z"/>
</g>
<path style="fill:#FEB860;" d="M360.074,456.143h-72.052v-73.438c0-17.986,14.578-32.566,32.563-32.566c0.36,0,0.719,0,1.078,0
	c21.214,0,38.411,17.191,38.41,38.405C360.074,418.885,360.074,456.143,360.074,456.143z"/>
<path style="fill:#9B4573;" d="M327.484,218.376h-85.314l3.391-89.8c0,0,8.962,37.688,28.441,54.296
	C298.902,204.104,327.484,218.376,327.484,218.376z"/>
<path style="fill:#FEC986;" d="M247.994,504.179H84.632c-15.893,0-28.777-12.884-28.777-28.777V118.259
	c0-60.993,49.445-110.437,110.438-110.437h145.747l-64.045,64.046V504.179z"/>
<g>
	<rect x="63.862" y="111.895" style="fill:#FEB860;" width="184.132" height="120.082"/>
	<rect x="63.862" y="352.069" style="fill:#FEB860;" width="184.132" height="120.092"/>
</g>
<circle style="fill:#FEC986;" cx="352.068" cy="111.895" r="104.074"/>
<circle style="fill:#C8546F;" cx="344.059" cy="111.895" r="32.023"/>
<g>
	<path style="fill:#1D1D1B;" d="M348.064,151.741c-21.97,0-39.844-17.874-39.844-39.844s17.874-39.844,39.844-39.844
		s39.844,17.874,39.844,39.844S370.036,151.741,348.064,151.741z M348.064,87.694c-13.345,0-24.202,10.857-24.202,24.202
		s10.857,24.202,24.202,24.202s24.202-10.857,24.202-24.202S361.41,87.694,348.064,87.694z"/>
	<rect x="99.891" y="104.074" style="fill:#1D1D1B;" width="24.016" height="15.642"/>
	<rect x="139.915" y="104.074" style="fill:#1D1D1B;" width="24.016" height="15.642"/>
	<rect x="179.949" y="104.074" style="fill:#1D1D1B;" width="24.016" height="15.642"/>
	<rect x="99.891" y="224.166" style="fill:#1D1D1B;" width="24.016" height="15.642"/>
	<rect x="139.915" y="224.166" style="fill:#1D1D1B;" width="24.016" height="15.642"/>
	<rect x="179.949" y="224.166" style="fill:#1D1D1B;" width="24.016" height="15.642"/>
	<rect x="99.891" y="344.248" style="fill:#1D1D1B;" width="24.016" height="15.642"/>
	<rect x="139.915" y="344.248" style="fill:#1D1D1B;" width="24.016" height="15.642"/>
	<rect x="179.949" y="344.248" style="fill:#1D1D1B;" width="24.016" height="15.642"/>
	<rect x="99.891" y="464.329" style="fill:#1D1D1B;" width="24.016" height="15.642"/>
	<rect x="139.915" y="464.329" style="fill:#1D1D1B;" width="24.016" height="15.642"/>
	<rect x="179.949" y="464.329" style="fill:#1D1D1B;" width="24.016" height="15.642"/>
	<path style="fill:#1D1D1B;" d="M372.082,407.925h40.215v16.195c0,13.345-10.857,24.202-24.202,24.202s-24.202-10.857-24.202-24.202
		v-40.029c0-21.969-17.874-39.843-39.844-39.843h-64.045v15.642h32.424c-5.151,6.714-8.223,15.103-8.223,24.201v96.069
		c0,8.931-7.265,16.196-16.195,16.196c-8.931,0-16.196-7.265-16.196-16.196V168.894c9.591,16.136,23.121,29.664,39.256,39.256
		h-31.065v15.642h88.063c61.7,0,111.896-50.196,111.896-111.896S409.765,0,348.064,0H163.932
		c-61.7,0-111.895,50.196-111.895,111.896v368.265C52.037,497.717,66.32,512,83.876,512h184.132
		c17.556,0,31.838-14.283,31.838-31.839v-96.069c0-13.345,10.857-24.201,24.202-24.201s24.202,10.856,24.202,24.201v40.029
		c0,9.098,3.071,17.488,8.223,24.202h-48.435v15.642h80.058c21.97,0,39.844-17.874,39.844-39.844v-31.838h-55.857L372.082,407.925
		L372.082,407.925z M444.318,111.896c0,53.075-43.179,96.254-96.254,96.254s-96.254-43.179-96.254-96.254
		s43.18-96.254,96.254-96.254S444.318,58.822,444.318,111.896z M83.876,496.358c-8.93,0-16.196-7.266-16.196-16.196v-0.185h16.196
		v-15.642H67.68V359.89h16.196v-15.642H67.68V239.803h16.196v-15.642H67.68V119.718h16.196v-15.642H67.999
		c3.994-49.431,45.493-88.433,95.934-88.433h127.134c-30.729,18.266-52.011,50.817-54.62,88.433h-16.474v15.642h16.196v104.443
		h-16.196v15.642h16.196v104.444h-16.196v15.642h16.196v104.443h-16.196v15.642h16.196v0.185c0,5.911,1.625,11.448,4.442,16.196
		H83.876V496.358z"/>
</g>
<g>
</g>
<g>
</g>
<g>
</g>
<g>
</g>
<g>
</g>
<g>
</g>
<g>
</g>
<g>
</g>
<g>
</g>
<g>
</g>
<g>
</g>
<g>
</g>
<g>
</g>
<g>
</g>
<g>
</g>
</svg>
